<?xml version="1.0" encoding="UTF-8"?>
<!-- Add logo for light mode -->
<!DOCTYPE svg PUBLIC "-//W3C//DTD SVG 1.1//EN" "http://www.w3.org/Graphics/SVG/1.1/DTD/svg11.dtd">
<svg xmlns="http://www.w3.org/2000/svg" version="1.1" width="3802px" height="3803px" style="shape-rendering:geometricPrecision; text-rendering:geometricPrecision; image-rendering:optimizeQuality; fill-rule:evenodd; clip-rule:evenodd" xmlns:xlink="http://www.w3.org/1999/xlink">
<g><path style="opacity:1" fill="#a4201a" d="M -0.5,-0.5 C 1266.83,-0.5 2534.17,-0.5 3801.5,-0.5C 3801.5,1267.17 3801.5,2534.83 3801.5,3802.5C 2534.17,3802.5 1266.83,3802.5 -0.5,3802.5C -0.5,2534.83 -0.5,1267.17 -0.5,-0.5 Z"/></g>
<g><path style="opacity:1" fill="#fefefe" d="M 1856.5,2301.5 C 1873.17,2301.33 1889.84,2301.5 1906.5,2302C 1936.86,2307.03 1957.7,2323.86 1969,2352.5C 1979.21,2392.57 1967.04,2423.74 1932.5,2446C 1924.19,2449.88 1915.52,2452.55 1906.5,2454C 1888.46,2454.92 1870.46,2454.58 1852.5,2453C 1810.35,2439.15 1790.85,2409.99 1794,2365.5C 1801.9,2331.43 1822.73,2310.1 1856.5,2301.5 Z"/></g>
<g><path style="opacity:1" fill="#fefefe" d="M 2148.5,2301.5 C 2164.5,2301.33 2180.5,2301.5 2196.5,2302C 2225.67,2306.49 2246.17,2322.32 2258,2349.5C 2269.37,2384.72 2261.2,2414.55 2233.5,2439C 2222.4,2447.05 2210.07,2452.05 2196.5,2454C 2180.5,2454.67 2164.5,2454.67 2148.5,2454C 2108.26,2445.09 2086.59,2420.09 2083.5,2379C 2086.06,2337.01 2107.73,2311.17 2148.5,2301.5 Z"/></g>
<g><path style="opacity:1" fill="#fefefe" d="M 2651.5,3125.5 C 2653.17,3125.5 2654.83,3125.5 2656.5,3125.5C 2656.5,3166.83 2656.5,3208.17 2656.5,3249.5C 2602.71,3256.84 2548.71,3259.01 2494.5,3256C 2479.91,3254.73 2465.57,3252.07 2451.5,3248C 2416.6,3237.43 2394.1,3214.6 2384,3179.5C 2378.43,3156.5 2375.1,3133.17 2374,3109.5C 2373.5,2845.5 2373.33,2581.5 2373.5,2317.5C 2433.5,2317.5 2493.5,2317.5 2553.5,2317.5C 2553.5,2395.17 2553.5,2472.83 2553.5,2550.5C 2588.17,2550.5 2622.83,2550.5 2657.5,2550.5C 2657.5,2591.17 2657.5,2631.83 2657.5,2672.5C 2622.83,2672.5 2588.17,2672.5 2553.5,2672.5C 2553.33,2805.17 2553.5,2937.83 2554,3070.5C 2554.37,3084.95 2558.37,3098.28 2566,3110.5C 2576.58,3121.03 2589.41,3126.53 2604.5,3127C 2620.21,3127.71 2635.87,3127.21 2651.5,3125.5 Z"/></g>
<g><path style="opacity:1" fill="#fefefe" d="M 3228.5,2712.5 C 3228.5,2728.17 3228.5,2743.83 3228.5,2759.5C 3174.83,2759.5 3121.17,2759.5 3067.5,2759.5C 3068.83,2734 3064.33,2709.67 3054,2686.5C 3043.06,2668.93 3027.22,2658.77 3006.5,2656C 2976.2,2650.98 2949.2,2657.98 2925.5,2677C 2904.17,2700.97 2899.01,2728.13 2910,2758.5C 2917.72,2774.89 2929.56,2787.39 2945.5,2796C 2956.42,2801.97 2967.75,2806.97 2979.5,2811C 3022.26,2825.14 3064.93,2839.48 3107.5,2854C 3139.32,2865.56 3167.98,2882.23 3193.5,2904C 3225.05,2936.59 3241.88,2975.76 3244,3021.5C 3252.31,3148.78 3194.81,3227.94 3071.5,3259C 3003.56,3272.1 2935.89,3270.77 2868.5,3255C 2828.5,3244.77 2795,3224.27 2768,3193.5C 2747.85,3165.74 2735.52,3134.74 2731,3100.5C 2727.99,3073.92 2726.83,3047.25 2727.5,3020.5C 2781.17,3020.5 2834.83,3020.5 2888.5,3020.5C 2887.26,3043.93 2889.76,3066.93 2896,3089.5C 2908.91,3122.56 2933.08,3141.06 2968.5,3145C 2993.13,3147.47 3016.47,3143.14 3038.5,3132C 3058.19,3119.26 3069.36,3101.1 3072,3077.5C 3077.35,3043.83 3066.18,3017.33 3038.5,2998C 3030.11,2993.14 3021.45,2988.81 3012.5,2985C 2966.24,2968.14 2919.91,2951.47 2873.5,2935C 2764.47,2893.82 2718.64,2815.32 2736,2699.5C 2749.87,2629.28 2790.04,2580.78 2856.5,2554C 2891.32,2540.98 2927.32,2533.98 2964.5,2533C 3018.06,2528.86 3070.06,2535.86 3120.5,2554C 3189.02,2584.4 3225.02,2637.24 3228.5,2712.5 Z"/></g>
<g><path style="opacity:1" fill="#fefffe" d="M 1972.5,2559.5 C 1972.5,2789.5 1972.5,3019.5 1972.5,3249.5C 1912.83,3249.5 1853.17,3249.5 1793.5,3249.5C 1793.5,3019.5 1793.5,2789.5 1793.5,2559.5C 1853.17,2559.5 1912.83,2559.5 1972.5,2559.5 Z"/></g>
<g><path style="opacity:1" fill="#fefffe" d="M 2262.5,2559.5 C 2262.5,2789.5 2262.5,3019.5 2262.5,3249.5C 2202.83,3249.5 2143.17,3249.5 2083.5,3249.5C 2083.5,3019.5 2083.5,2789.5 2083.5,2559.5C 2143.17,2559.5 2202.83,2559.5 2262.5,2559.5 Z"/></g>
<g><path style="opacity:1" fill="#d59794" d="M 3228.5,2712.5 C 3229.5,2728.32 3229.83,2744.32 3229.5,2760.5C 3175.33,2760.83 3121.33,2760.5 3067.5,2759.5C 3121.17,2759.5 3174.83,2759.5 3228.5,2759.5C 3228.5,2743.83 3228.5,2728.17 3228.5,2712.5 Z"/></g>
<g><path style="opacity:1" fill="#e8c5c3" d="M 2651.5,3125.5 C 2653.26,3124.54 2655.26,3124.21 2657.5,3124.5C 2657.83,3166.34 2657.5,3208 2656.5,3249.5C 2656.5,3208.17 2656.5,3166.83 2656.5,3125.5C 2654.83,3125.5 2653.17,3125.5 2651.5,3125.5 Z"/></g>
<g><path style="opacity:1" fill="#c5706b" d="M 1972.5,2559.5 C 1973.5,2789.67 1973.83,3020 1973.5,3250.5C 1913.33,3250.83 1853.33,3250.5 1793.5,3249.5C 1853.17,3249.5 1912.83,3249.5 1972.5,3249.5C 1972.5,3019.5 1972.5,2789.5 1972.5,2559.5 Z"/></g>
<g><path style="opacity:1" fill="#c5706b" d="M 2262.5,2559.5 C 2263.5,2789.67 2263.83,3020 2263.5,3250.5C 2203.33,3250.83 2143.33,3250.5 2083.5,3249.5C 2143.17,3249.5 2202.83,3249.5 2262.5,3249.5C 2262.5,3019.5 2262.5,2789.5 2262.5,2559.5 Z"/></g>
</svg>
